<svg width="33" height="33" viewBox="0 0 33 33" fill="none" xmlns="http://www.w3.org/2000/svg">
<path d="M29.625 23.7916V10.6666H9.20837V23.7916H29.625ZM29.625 3.37492C30.3986 3.37492 31.1405 3.68221 31.6874 4.22919C32.2344 4.77617 32.5417 5.51804 32.5417 6.29158V23.7916C32.5417 24.5651 32.2344 25.307 31.6874 25.854C31.1405 26.401 30.3986 26.7083 29.625 26.7083H9.20837C8.43483 26.7083 7.69296 26.401 7.14598 25.854C6.599 25.307 6.29171 24.5651 6.29171 23.7916V6.29158C6.29171 5.51804 6.599 4.77617 7.14598 4.22919C7.69296 3.68221 8.43483 3.37492 9.20837 3.37492H10.6667V0.458252H13.5834V3.37492H25.25V0.458252H28.1667V3.37492H29.625ZM24.5646 15.1291L18.0896 21.6041L14.1813 17.6958L15.7271 16.1499L18.0896 18.5124L23.0188 13.5833L24.5646 15.1291ZM3.37504 29.6249H23.7917V32.5416H3.37504C2.60149 32.5416 1.85963 32.2343 1.31265 31.6873C0.765665 31.1403 0.458374 30.3985 0.458374 29.6249V12.1249H3.37504V29.6249Z" fill="url(#paint0_linear_553_79)"/>
<defs>
<linearGradient id="paint0_linear_553_79" x1="16.5" y1="0.458252" x2="16.5" y2="32.5416" gradientUnits="userSpaceOnUse">
<stop stop-color="#532959"/>
<stop offset="1" stop-color="#824D69"/>
</linearGradient>
</defs>
</svg>
