<svg width="39" height="39" viewBox="0 0 39 39" fill="none" xmlns="http://www.w3.org/2000/svg">
<path d="M8.84783 21.9149H30.1522M19.5 21.9149V38M11.1304 18.0851V11.1915H9.34696C8.33353 11.1915 7.34891 11.531 6.54826 12.1564C5.74761 12.7819 5.17645 13.6577 4.92478 14.646L2 26.1277V26.5106H12.6522V28.8085C12.6522 31.1064 12.6522 32.6383 13.7935 34.9362C13.7935 34.9362 14.9348 37.234 16.4565 37.234M27.8696 18.0851V11.1915H29.653C30.6665 11.1915 31.6511 11.531 32.4517 12.1564C33.2524 12.7819 33.8235 13.6577 34.0752 14.646L37 26.1277V26.5106H26.3478V28.8085C26.3478 31.1064 26.3478 32.6383 25.2065 34.9362C25.2065 34.9362 24.0652 37.234 22.5435 37.234M10.9022 8.12766C10.9022 8.12766 8.46739 6.59574 8.46739 4.68085C8.46739 3.97066 8.74764 3.28955 9.24649 2.78737C9.74533 2.28519 10.4219 2.00306 11.1274 2.00306C11.8329 2.00306 12.5094 2.28519 13.0083 2.78737C13.5071 3.28955 13.7874 3.97066 13.7874 4.68085C13.7874 6.59574 11.3587 8.12766 11.3587 8.12766H10.9022ZM28.0978 8.12766C28.0978 8.12766 30.5326 6.59574 30.5326 4.68085C30.5326 3.96985 30.252 3.28796 29.7526 2.7852C29.2532 2.28245 28.5758 2 27.8696 2C26.3996 2 25.2126 3.20102 25.2126 4.68085C25.2126 6.59574 27.6413 8.12766 27.6413 8.12766H28.0978Z" stroke="url(#paint0_linear_553_81)" stroke-width="3"/>
<defs>
<linearGradient id="paint0_linear_553_81" x1="19.5" y1="2" x2="19.5" y2="38" gradientUnits="userSpaceOnUse">
<stop stop-color="#532959"/>
<stop offset="1" stop-color="#824D69"/>
</linearGradient>
</defs>
</svg>
