<svg width="70" height="71" viewBox="0 0 70 71" fill="none" xmlns="http://www.w3.org/2000/svg">
<path d="M21.8751 12.1667V30.2267L27.7084 26.75L33.5417 30.2267V12.1667H21.8751ZM51.0417 63.7683C47.7926 63.7683 45.0363 62.6367 42.773 60.3733C40.5077 58.11 39.3751 55.3528 39.3751 52.1017C39.3751 48.8544 40.5165 46.0982 42.7992 43.8329C45.082 41.5676 47.9229 40.435 51.3218 40.435C54.4212 40.435 57.0948 41.5676 59.3426 43.8329C61.5904 46.0982 62.7123 48.8544 62.7084 52.1017C62.7084 55.3528 61.5768 58.11 59.3134 60.3733C57.0481 62.6367 54.2909 63.7683 51.0417 63.7683ZM48.5188 57.5996L56.4813 51.9908L48.5188 46.3821V57.5996ZM33.5417 52.0987C33.5417 53.8293 33.7858 55.5074 34.2738 57.1329C34.7619 58.7604 35.4716 60.2994 36.403 61.75H16.3801C15.0831 61.75 13.9738 61.2882 13.0522 60.3646C12.1305 59.441 11.6687 58.3336 11.6667 57.0425V13.9604C11.6667 12.6654 12.1286 11.5571 13.0522 10.6354C13.9758 9.71375 15.0841 9.25194 16.3772 9.25H47.7897C49.0847 9.25 50.193 9.71181 51.1147 10.6354C52.0363 11.559 52.4981 12.6674 52.5001 13.9604V34.6921C52.3037 34.6804 52.1063 34.6726 51.908 34.6687C51.7116 34.6629 51.5152 34.66 51.3188 34.66C46.3994 34.66 42.2062 36.3536 38.7392 39.7408C35.2723 43.1281 33.5398 47.2493 33.5417 52.0987Z" fill="#DFB6B2"/>
</svg>
