<svg width="70" height="71" viewBox="0 0 70 71" fill="none" xmlns="http://www.w3.org/2000/svg">
<path d="M8.75 59.0579V13.9633C8.75 12.6197 9.20014 11.4987 10.1004 10.6004C11.0007 9.70208 12.1207 9.25194 13.4604 9.25H56.5396C57.8813 9.25 59.0013 9.70014 59.8996 10.6004C60.7979 11.5007 61.2481 12.6217 61.25 13.9633V45.3729C61.25 46.7146 60.7999 47.8356 59.8996 48.7358C58.9993 49.6361 57.8793 50.0853 56.5396 50.0833H17.7246L8.75 59.0579ZM27.7579 40.3796L35 35.9871L42.2421 40.3796L40.3171 32.14L46.7221 26.645L38.3046 25.8983L35 18.1692L31.6954 25.8983L23.2779 26.645L29.6829 32.14L27.7579 40.3796Z" fill="#DFB6B2"/>
</svg>
