<svg width="44" height="44" viewBox="0 0 44 44" fill="none" xmlns="http://www.w3.org/2000/svg">
<path d="M7.33333 33C7.09127 33.0055 6.85064 32.9615 6.62618 32.8707C6.40172 32.7799 6.19817 32.6442 6.028 32.472C5.85576 32.3018 5.72009 32.0983 5.6293 31.8738C5.53851 31.6494 5.49451 31.4087 5.5 31.1667C5.5 30.6484 5.676 30.2133 6.028 29.8613C6.19817 29.6891 6.40172 29.5534 6.62618 29.4626C6.85064 29.3718 7.09127 29.3278 7.33333 29.3333H27.5C28.0194 29.3333 28.4552 29.5093 28.8072 29.8613C28.9791 30.0317 29.1144 30.2353 29.2049 30.4597C29.2953 30.6842 29.3391 30.9247 29.3333 31.1667C29.3333 31.6849 29.1579 32.12 28.8072 32.472C28.6368 32.6445 28.4329 32.7803 28.2081 32.8711C27.9833 32.9619 27.7424 33.0057 27.5 33H7.33333Z" fill="#FBE5D8"/>
<path opacity="0.3" d="M31.9 22L37.2167 27.3167C37.3836 27.485 37.5145 27.6856 37.6012 27.9063C37.6879 28.127 37.7286 28.363 37.7208 28.6C37.7286 28.837 37.6879 29.073 37.6012 29.2937C37.5145 29.5144 37.3836 29.715 37.2167 29.8833C37.0483 30.0503 36.8477 30.1811 36.627 30.2678C36.4064 30.3545 36.1703 30.3952 35.9333 30.3875C35.6964 30.3952 35.4603 30.3545 35.2397 30.2678C35.019 30.1811 34.8183 30.0503 34.65 29.8833L28.05 23.2833C27.8756 23.1183 27.7369 22.9192 27.6423 22.6985C27.5477 22.4778 27.4993 22.2401 27.5 22C27.5 21.5111 27.6833 21.0833 28.05 20.7167L34.65 14.1167C34.8183 13.9497 35.019 13.8189 35.2397 13.7322C35.4603 13.6455 35.6964 13.6048 35.9333 13.6125C36.4528 13.6125 36.8806 13.7806 37.2167 14.1167C37.3836 14.285 37.5145 14.4856 37.6012 14.7063C37.6879 14.927 37.7286 15.163 37.7208 15.4C37.7286 15.637 37.6879 15.873 37.6012 16.0937C37.5145 16.3144 37.3836 16.515 37.2167 16.6833L31.9 22Z" fill="#FBE5D8"/>
<path d="M7.33334 14.6667C7.09141 14.6724 6.85086 14.6287 6.62641 14.5382C6.40196 14.4477 6.19834 14.3124 6.02801 14.1405C5.85555 13.9701 5.71975 13.7663 5.62895 13.5415C5.53815 13.3167 5.49427 13.0757 5.50001 12.8333C5.50001 12.3139 5.67601 11.8782 6.02801 11.5262C6.19834 11.3543 6.40196 11.2189 6.62641 11.1285C6.85086 11.038 7.09141 10.9943 7.33334 11H27.5C27.7422 10.994 27.9831 11.0376 28.2079 11.1281C28.4327 11.2186 28.6366 11.354 28.8072 11.5262C28.9793 11.6967 29.1148 11.9006 29.2053 12.1254C29.2957 12.3502 29.3393 12.5911 29.3333 12.8333C29.3393 13.0756 29.2957 13.3165 29.2053 13.5413C29.1148 13.766 28.9793 13.97 28.8072 14.1405C28.6366 14.3126 28.4327 14.4481 28.2079 14.5386C27.9831 14.6291 27.7422 14.6726 27.5 14.6667H7.33334Z" fill="#FBE5D8"/>
<path opacity="0.3" d="M7.33333 23.8333C7.09127 23.8388 6.85064 23.7948 6.62618 23.704C6.40172 23.6132 6.19817 23.4776 6.028 23.3053C5.85576 23.1352 5.72009 22.9316 5.6293 22.7071C5.53851 22.4827 5.49451 22.2421 5.5 22C5.5 21.4806 5.676 21.0448 6.028 20.6928C6.19833 20.5209 6.40195 20.3856 6.6264 20.2951C6.85085 20.2046 7.0914 20.1609 7.33333 20.1667H22C22.2422 20.1607 22.4831 20.2043 22.7079 20.2948C22.9327 20.3852 23.1366 20.5207 23.3072 20.6928C23.4793 20.8634 23.6148 21.0673 23.7052 21.2921C23.7957 21.5169 23.8393 21.7578 23.8333 22C23.8333 22.5182 23.6579 22.9533 23.3072 23.3053C23.1368 23.4778 22.9329 23.6136 22.7081 23.7044C22.4833 23.7952 22.2424 23.8391 22 23.8333H7.33333Z" fill="#FBE5D8"/>
</svg>
